<svg width="66" height="66" viewBox="0 0 66 66" fill="none" xmlns="http://www.w3.org/2000/svg">
<g clip-path="url(#clip0_1832_14994)">
<path d="M44 30.25C48.565 30.25 52.2225 26.565 52.2225 22C52.2225 17.435 48.565 13.75 44 13.75C39.435 13.75 35.75 17.435 35.75 22C35.75 26.565 39.435 30.25 44 30.25ZM22 30.25C26.565 30.25 30.2225 26.565 30.2225 22C30.2225 17.435 26.565 13.75 22 13.75C17.435 13.75 13.75 17.435 13.75 22C13.75 26.565 17.435 30.25 22 30.25ZM22 35.75C15.5925 35.75 2.75 38.9675 2.75 45.375V52.25H41.25V45.375C41.25 38.9675 28.4075 35.75 22 35.75ZM44 35.75C43.2025 35.75 42.295 35.805 41.3325 35.8875C44.5225 38.1975 46.75 41.305 46.75 45.375V52.25H63.25V45.375C63.25 38.9675 50.4075 35.75 44 35.75Z" fill="#4E944F"/>
</g>
<defs>
<clipPath id="clip0_1832_14994">
<rect width="66" height="66" fill="white"/>
</clipPath>
</defs>
</svg>
